<svg id="Layer_1" data-name="Layer 1" xmlns="http://www.w3.org/2000/svg" viewBox="0 0 106.38 27.01"><defs><style>.cls-1{fill:#fff;}</style></defs><title>Artboard 1</title><path class="cls-1" d="M14.73,4.89h3V1.16H15.91v1.6a.58.58,0,0,1-.58.58H12.87a.58.58,0,0,1-.58-.58V1.16H10.44v1.6a.58.58,0,0,1-.58.58H7.4a.58.58,0,0,1-.58-.58V1.16H5V4.89h8A.58.58,0,1,1,13,6H5.51l.92,1.28H16.3L17.22,6H14.73a.58.58,0,1,1,0-1.16Z"/><path class="cls-1" d="M13.45.58v1.6h1.31V.58A.58.58,0,0,1,15.34,0H12.87A.58.58,0,0,1,13.45.58Z"/><path class="cls-1" d="M8,19.58h9.66l-.85-1.28H5.9L5,19.58H6.29a.58.58,0,0,1,0,1.16H4.55v3.7H18.18v-3.7H8a.58.58,0,0,1,0-1.16Z"/><path class="cls-1" d="M104.38,0h-86a.58.58,0,0,1,.58.58V5.47s0,0,0,.05v.12l0,0v.07l0,0v0h0L17.19,8.08l.52,9.44,1.53,2.31h0l0,.06h0l0,.07h0l0,.07v0a.59.59,0,0,1,0,.08v4.28a.58.58,0,0,1,0,1.16h85a2,2,0,0,0,2-2V2A2,2,0,0,0,104.38,0ZM33.17,9.63H30.43V6.17H27.08V9.49l5.5,5.18a2,2,0,0,1,.6,1.49v4.37a1.48,1.48,0,0,1-1.66,1.68H26a1.47,1.47,0,0,1-1.65-1.68V16.15h2.74v3.74h3.35v-3.6l-5.5-5.2a1.94,1.94,0,0,1-.6-1.46V5.55A1.48,1.48,0,0,1,26,3.86h5.52a1.47,1.47,0,0,1,1.66,1.66ZM43,22.2H35.35V3.86h7.54V6.29H38.09v5.36h4.13V14H38.09v5.75H43ZM53.86,9.84H51.13V6.22H47.57V19.85h3.55V16h2.73v4.54a1.48,1.48,0,0,1-1.68,1.68H46.46a1.46,1.46,0,0,1-1.63-1.68v-15q0-1.69,1.63-1.69h5.72a1.49,1.49,0,0,1,1.68,1.69ZM65.19,20.52A1.49,1.49,0,0,1,63.5,22.2H57.68A1.48,1.48,0,0,1,56,20.52V3.86h2.74v16h3.69v-16h2.74Zm8.73,1.68-3-8.52V12h2.7V6.22H70.13v16H67.39V3.86h7.28a1.48,1.48,0,0,1,1.65,1.69v6.67a1.45,1.45,0,0,1-.79,1.5,5.64,5.64,0,0,1-1.78.18l3,8.31Zm7.32,0H78.5V3.86h2.74ZM91,6.29H86.23v5.43h4.05v2.38H86.23V22.2H83.49V3.86H91ZM101.76,4l-2.43,7.66q-.45,1.14-1.21,3.83V22.2H95.38V15.46a15.53,15.53,0,0,0-.54-1.93q-.62-1.75-.67-1.9L91.75,4s0,0,0-.11h2.82l2.19,8,2.18-8h2.81Z"/><polygon class="cls-1" points="6.68 8.49 6.2 17.13 16.53 17.13 16.05 8.49 6.68 8.49"/><path class="cls-1" d="M2.81,25a.58.58,0,0,1,.58-.58V20.15a.59.59,0,0,1,0-.08v0l0-.07h0l0-.07h0l0-.06h0L5,17.52l.52-9.44L3.91,5.81h0v0l0,0V5.69l0,0V5.52s0,0,0-.05V.58A.58.58,0,0,1,4.38,0H2A2,2,0,0,0,0,2V23.59a2,2,0,0,0,2,2H3.39A.58.58,0,0,1,2.81,25Z"/><path class="cls-1" d="M8,.58v1.6H9.28V.58A.58.58,0,0,1,9.86,0H7.4A.58.58,0,0,1,8,.58Z"/></svg>