<?xml version="1.0" encoding="iso-8859-1"?>
<!-- Generator: Adobe Illustrator 17.1.0, SVG Export Plug-In . SVG Version: 6.00 Build 0)  -->
<!DOCTYPE svg PUBLIC "-//W3C//DTD SVG 1.1//EN" "http://www.w3.org/Graphics/SVG/1.1/DTD/svg11.dtd">
<svg version="1.1" id="Capa_1" xmlns="http://www.w3.org/2000/svg" xmlns:xlink="http://www.w3.org/1999/xlink" x="0px" y="0px"
	 viewBox="0 0 455 455" style="enable-background:new 0 0 455 455;" xml:space="preserve">
<g>
	<path fill="#ffffff" d="M453.094,302.144l-82.686-92.594c-2.073-2.322-5.362-3.12-8.268-2.013c-2.906,1.109-4.827,3.897-4.827,7.008v25.397h-31.62
		c-4.142,0-7.5,3.357-7.5,7.5s3.358,7.5,7.5,7.5h39.12c4.142,0,7.5-3.357,7.5-7.5v-13.238l65.131,72.935l-65.131,72.935v-13.238
		c0-4.143-3.358-7.5-7.5-7.5H146.806V254.943h148.888c4.142,0,7.5-3.357,7.5-7.5s-3.358-7.5-7.5-7.5H139.306
		c-4.142,0-7.5,3.357-7.5,7.5v119.393c0,4.143,3.358,7.5,7.5,7.5h218.008v25.397c0,3.11,1.92,5.898,4.827,7.008
		c0.871,0.332,1.775,0.492,2.672,0.492c2.096,0,4.145-0.879,5.596-2.505l82.686-92.594
		C455.635,309.289,455.635,304.989,453.094,302.144z"/>
	<path fill="#ffffff" d="M146.806,207.558c0-4.143-3.358-7.5-7.5-7.5h-39.12c-4.142,0-7.5,3.357-7.5,7.5v14.804l-74.574-74.5l74.574-74.5v14.804
		c0,4.143,3.358,7.5,7.5,7.5h218.008v104.393H169.306c-4.142,0-7.5,3.357-7.5,7.5s3.358,7.5,7.5,7.5h156.388
		c4.142,0,7.5-3.357,7.5-7.5V88.165c0-4.143-3.358-7.5-7.5-7.5H107.686V55.268c0-3.033-1.827-5.767-4.628-6.929
		c-2.802-1.161-6.027-0.521-8.173,1.623L2.199,142.556C0.791,143.962,0,145.871,0,147.862s0.791,3.899,2.199,5.306l92.686,92.594
		c1.435,1.434,3.352,2.194,5.302,2.194c0.967,0,1.942-0.187,2.871-0.571c2.801-1.162,4.628-3.896,4.628-6.929v-25.397h31.62
		C143.448,215.058,146.806,211.7,146.806,207.558z"/>
</g>
<g>
</g>
<g>
</g>
<g>
</g>
<g>
</g>
<g>
</g>
<g>
</g>
<g>
</g>
<g>
</g>
<g>
</g>
<g>
</g>
<g>
</g>
<g>
</g>
<g>
</g>
<g>
</g>
<g>
</g>
</svg>
